<svg width="1740" height="7628" viewBox="0 0 1740 7628" fill="none" xmlns="http://www.w3.org/2000/svg">
<rect width="1740" height="7628" fill="#1E1E1E"/>
<rect x="0.5" y="0.5" width="1739" height="7627" rx="4.5" stroke="#9747FF" stroke-dasharray="10 5"/>
<rect x="20" y="20" width="1720" height="3784" fill="#CCC0C0"/>
<g filter="url(#filter0_d_0_1)">
<line x1="113.091" y1="185.501" x2="278.091" y2="187.501" stroke="white" stroke-width="15"/>
</g>
<line x1="195.091" y1="255.501" x2="360.091" y2="257.501" stroke="white" stroke-width="15"/>
<path d="M313.355 349.909L341.746 435.776H342.865L371.203 349.909H392.936L354.477 459H330.081L291.675 349.909H313.355ZM428.07 459H406.976L445.382 349.909H469.778L508.237 459H487.143L458.006 372.281H457.154L428.07 459ZM428.762 416.227H486.291V432.1H428.762V416.227ZM542.106 459V349.909H583.015C591.395 349.909 598.427 351.365 604.108 354.277C609.826 357.189 614.14 361.273 617.052 366.528C620 371.749 621.474 377.839 621.474 384.799C621.474 391.795 619.982 397.867 616.999 403.016C614.052 408.13 609.702 412.089 603.949 414.895C598.196 417.665 591.129 419.05 582.748 419.05H553.611V402.643H580.085C584.986 402.643 588.998 401.969 592.123 400.619C595.248 399.234 597.557 397.228 599.048 394.6C600.575 391.937 601.339 388.67 601.339 384.799C601.339 380.928 600.575 377.626 599.048 374.891C597.521 372.121 595.195 370.026 592.07 368.606C588.945 367.15 584.915 366.422 579.979 366.422H561.868V459H542.106ZM598.462 409.568L625.469 459H603.416L576.889 409.568H598.462ZM654.37 366.475V349.909H741.409V366.475H707.691V459H688.088V366.475H654.37ZM778.513 459H757.42L795.825 349.909H820.221L858.68 459H837.586L808.449 372.281H807.597L778.513 459ZM779.206 416.227H836.734V432.1H779.206V416.227ZM892.549 459V349.909H912.311V442.434H960.358V459H892.549ZM1015.12 459H994.027L1032.43 349.909H1056.83L1095.29 459H1074.19L1045.06 372.281H1044.2L1015.12 459ZM1015.81 416.227H1073.34V432.1H1015.81V416.227ZM1129.16 459V349.909H1170.07C1178.45 349.909 1185.48 351.472 1191.16 354.597C1196.88 357.722 1201.19 362.018 1204.1 367.487C1207.05 372.92 1208.52 379.099 1208.52 386.024C1208.52 393.02 1207.05 399.234 1204.1 404.668C1201.16 410.101 1196.81 414.38 1191.05 417.505C1185.3 420.594 1178.22 422.139 1169.8 422.139H1142.69V405.893H1167.14C1172.04 405.893 1176.05 405.04 1179.17 403.336C1182.3 401.631 1184.61 399.288 1186.1 396.305C1187.63 393.322 1188.39 389.895 1188.39 386.024C1188.39 382.153 1187.63 378.744 1186.1 375.797C1184.61 372.849 1182.28 370.559 1179.12 368.925C1176 367.256 1171.97 366.422 1167.03 366.422H1148.92V459H1129.16Z" fill="black"/>
<defs>
<filter id="filter0_d_0_1" x="109" y="178.001" width="173.182" height="24.9989" filterUnits="userSpaceOnUse" color-interpolation-filters="sRGB">
<feFlood flood-opacity="0" result="BackgroundImageFix"/>
<feColorMatrix in="SourceAlpha" type="matrix" values="0 0 0 0 0 0 0 0 0 0 0 0 0 0 0 0 0 0 127 0" result="hardAlpha"/>
<feOffset dy="4"/>
<feGaussianBlur stdDeviation="2"/>
<feComposite in2="hardAlpha" operator="out"/>
<feColorMatrix type="matrix" values="0 0 0 0 0 0 0 0 0 0 0 0 0 0 0 0 0 0 0.25 0"/>
<feBlend mode="normal" in2="BackgroundImageFix" result="effect1_dropShadow_0_1"/>
<feBlend mode="normal" in="SourceGraphic" in2="effect1_dropShadow_0_1" result="shape"/>
</filter>
</defs>
</svg>
